<?xml version="1.0" encoding="utf-8"?>
<!-- Generator: Adobe Illustrator 19.2.1, SVG Export Plug-In . SVG Version: 6.00 Build 0)  -->
<!DOCTYPE svg PUBLIC "-//W3C//DTD SVG 1.1//EN" "http://www.w3.org/Graphics/SVG/1.1/DTD/svg11.dtd">
<svg version="1.1" id="Layer_1" xmlns="http://www.w3.org/2000/svg" xmlns:xlink="http://www.w3.org/1999/xlink" x="0px" y="0px"
	 viewBox="0 0 529.1 196.5" style="enable-background:new 0 0 529.1 196.5;" xml:space="preserve">
<style type="text/css">
	.st0{fill:#FFFFFF;}
	.st1{fill:none;}
</style>
<title>pand-overlay</title>
<g>
	<g>
		<path class="st0" d="M102.6,21.3c-0.6,0-1-0.5-1-1V7.1c0-0.6,0.5-1,1-1s1,0.5,1,1v13.1C103.7,20.8,103.2,21.3,102.6,21.3z"/>
	</g>
	<g>
		<path class="st0" d="M113.1,27.4c-0.6,0-1-0.5-1-1V1c0-0.6,0.5-1,1-1s1,0.5,1,1v25.3C114.2,26.9,113.7,27.4,113.1,27.4z"/>
	</g>
	<g>
		<path class="st0" d="M123.6,24.3c-0.6,0-1-0.5-1-1V4.1c0-0.6,0.5-1,1-1s1,0.5,1,1v19.1C124.7,23.8,124.2,24.3,123.6,24.3z"/>
	</g>
	<g>
		<path class="st0" d="M134.1,21.3c-0.6,0-1-0.5-1-1V7.1c0-0.6,0.5-1,1-1c0.6,0,1,0.5,1,1v13.1C135.2,20.8,134.7,21.3,134.1,21.3z"
			/>
	</g>
	<g>
		<path class="st0" d="M144.6,26.3c-0.6,0-1-0.5-1-1V2.1c0-0.6,0.5-1,1-1c0.6,0,1,0.5,1,1v23.2C145.7,25.8,145.2,26.3,144.6,26.3z"
			/>
	</g>
	<g>
		<path class="st0" d="M155.1,21.3c-0.6,0-1-0.5-1-1V7.1c0-0.6,0.5-1,1-1c0.6,0,1,0.5,1,1v13.1C156.2,20.8,155.7,21.3,155.1,21.3z"
			/>
	</g>
	<g>
		<path class="st0" d="M165.6,26.9c-0.6,0-1-0.5-1-1V1.5c0-0.6,0.5-1,1-1c0.6,0,1,0.5,1,1v24.4C166.6,26.5,166.2,26.9,165.6,26.9z"
			/>
	</g>
	<g>
		<path class="st0" d="M176.1,24.3c-0.6,0-1-0.5-1-1V4.1c0-0.6,0.5-1,1-1c0.6,0,1,0.5,1,1v19.1C177.1,23.8,176.7,24.3,176.1,24.3z"
			/>
	</g>
	<g>
		<path class="st0" d="M186.6,21.3c-0.6,0-1-0.5-1-1V7.1c0-0.6,0.5-1,1-1c0.6,0,1,0.5,1,1v13.1C187.6,20.8,187.2,21.3,186.6,21.3z"
			/>
	</g>
	<g>
		<path class="st0" d="M197.1,21.3c-0.6,0-1-0.5-1-1V7.1c0-0.6,0.5-1,1-1c0.6,0,1,0.5,1,1v13.1C198.1,20.8,197.7,21.3,197.1,21.3z"
			/>
	</g>
	<g>
		<path class="st0" d="M207.6,21.3c-0.6,0-1-0.5-1-1V7.1c0-0.6,0.5-1,1-1c0.6,0,1,0.5,1,1v13.1C208.6,20.8,208.1,21.3,207.6,21.3z"
			/>
	</g>
	<g>
		<path class="st0" d="M218.1,26.3c-0.6,0-1-0.5-1-1V2.1c0-0.6,0.5-1,1-1c0.6,0,1,0.5,1,1v23.2C219.1,25.8,218.6,26.3,218.1,26.3z"
			/>
	</g>
</g>
<g>
	<g>
		<path class="st0" d="M452.4,20.3V7.2c0-0.6,0.5-1,1-1c0.6,0,1,0.5,1,1v13.1c0,0.6-0.5,1-1,1C452.9,21.3,452.4,20.9,452.4,20.3z"/>
	</g>
	<g>
		<path class="st0" d="M441.9,26.4V1.1c0-0.6,0.5-1,1-1c0.6,0,1,0.5,1,1v25.3c0,0.6-0.5,1-1,1C442.4,27.4,441.9,26.9,441.9,26.4z"/>
	</g>
	<g>
		<path class="st0" d="M431.5,23.3V4.2c0-0.6,0.5-1,1-1c0.6,0,1,0.5,1,1v19.1c0,0.6-0.5,1-1,1C431.9,24.4,431.5,23.9,431.5,23.3z"/>
	</g>
	<g>
		<path class="st0" d="M421,20.3V7.2c0-0.6,0.5-1,1-1c0.6,0,1,0.5,1,1v13.1c0,0.6-0.5,1-1,1C421.4,21.3,421,20.9,421,20.3z"/>
	</g>
	<g>
		<path class="st0" d="M410.5,25.3V2.2c0-0.6,0.5-1,1-1c0.6,0,1,0.5,1,1v23.1c0,0.6-0.5,1-1,1C410.9,26.3,410.5,25.9,410.5,25.3z"/>
	</g>
	<g>
		<path class="st0" d="M400,20.3V7.2c0-0.6,0.5-1,1-1c0.6,0,1,0.5,1,1v13.1c0,0.6-0.5,1-1,1C400.5,21.3,400,20.9,400,20.3z"/>
	</g>
	<g>
		<path class="st0" d="M389.5,25.9V1.5c0-0.6,0.5-1,1-1c0.6,0,1,0.5,1,1v24.4c0,0.6-0.5,1-1,1C390,27,389.5,26.5,389.5,25.9z"/>
	</g>
	<g>
		<path class="st0" d="M379,23.3V4.2c0-0.6,0.5-1,1-1c0.6,0,1,0.5,1,1v19.1c0,0.6-0.5,1-1,1C379.5,24.4,379,23.9,379,23.3z"/>
	</g>
	<g>
		<path class="st0" d="M368.5,20.3V7.2c0-0.6,0.5-1,1-1c0.6,0,1,0.5,1,1v13.1c0,0.6-0.5,1-1,1C369,21.3,368.5,20.9,368.5,20.3z"/>
	</g>
	<g>
		<path class="st0" d="M358,20.3V7.2c0-0.6,0.5-1,1-1c0.6,0,1,0.5,1,1v13.1c0,0.6-0.5,1-1,1C358.5,21.3,358,20.9,358,20.3z"/>
	</g>
	<g>
		<path class="st0" d="M347.5,20.3V7.2c0-0.6,0.5-1,1-1c0.6,0,1,0.5,1,1v13.1c0,0.6-0.5,1-1,1C348,21.3,347.5,20.9,347.5,20.3z"/>
	</g>
	<g>
		<path class="st0" d="M337,25.3V2.2c0-0.6,0.5-1,1-1c0.6,0,1,0.5,1,1v23.1c0,0.6-0.5,1-1,1C337.5,26.3,337,25.9,337,25.3z"/>
	</g>
</g>
<g>
	<g>
		<path class="st1" d="M279.1,79.1c-2.3,0.7-5,5.5-6.3,7.5c-3.6,5.6-6.3,13.3-6.4,20c0,2.7,0.8,5.4,4.1,4.3c2.2-0.7,4.9-5.8,5.9-7.6
			c3-5.1,4.5-10.9,5-16.8c0-1.3,0-4.3,0.2-3.6C281.2,80.6,283.2,77.8,279.1,79.1z"/>
	</g>
	<g>
		<path class="st0" d="M295.8,75.2c0,1.2-0.1,2.4-0.2,3.6C295.6,79.8,295.7,79.7,295.8,75.2z"/>
	</g>
	<g>
		<path class="st0" d="M49.3,64.8c2.1-4.3,4.4-8.5,7.4-12.2c1.9-2.4,5.9-8,9.2-8.3c5.5-0.6,1.2,6.7,0.3,8.8c-2,4.3-4,8.6-6.5,12.7
			c-2.2,3.7-4.9,8.4,0.4,11.2c3.4,1.8,7.4-0.1,9.8-2.7c5.9-6.4,10.9-17.2,12.1-25.8c1.4-9.3-6-16.3-15.3-15.8
			c-6.8,0.4-12.4,4.6-17,9.2c-8.7,8.8-19.2,23.8-14.8,36.9c2.9,8.7,11.1,12.3,19,15.4c3.5,1.4,9.8,2.3,11.6,6.2
			c1.6,3.5-0.1,9.4-1,12.9c-1.6,6.3-6.4,19-15.2,14.5c-10.1-5.1,1.5-14.5,4.3-19.6c4.6-8.4-5.9-9.4-11.1-5.5
			c-4.4,3.2-7.8,8-10.9,12.5c-7.9,14.8,13.9,26.9,26,25c9.2-1.5,14.9-9.6,18.4-17.6c3.3-7.5,6.6-19.8,2.5-27.6
			C71.1,81.1,39.1,86.2,49.3,64.8z"/>
	</g>
	<g>
		<path class="st0" d="M295.6,78.8c0.1-1.2,0.2-2.4,0.2-3.6C295.6,74.5,295.6,77.5,295.6,78.8z"/>
	</g>
	<g>
		<g>
			<path class="st1" d="M293.2,71.5c-2.3,0.7-5,5.5-6.3,7.5c-3.6,5.6-6.3,13.3-6.4,20c0,2.7,0.8,5.4,4.1,4.3
				c2.2-0.7,4.9-5.8,5.9-7.6c3-5.1,4.5-10.9,5-16.8c0,1,0.1,0.9,0.2-3.6C295.2,72.9,297.3,70.2,293.2,71.5z"/>
		</g>
		<g>
			
				<ellipse transform="matrix(0.5322 -0.8466 0.8466 0.5322 31.6218 206.1118)" class="st1" cx="202.3" cy="74.4" rx="7.8" ry="4.5"/>
		</g>
		<g>
			<path class="st1" d="M242.5,76.1c-2.5-1.7-4.9,0.9-6.6,2.9c-4.7,5.5-5.9,12.8-5.9,19.6c0,1.5,0,2,0,3c0.5,2.9,0.1,5.6,4.1,5
				c2.2-0.3,4.5-3.8,5.6-5.5c3.4-5,5.6-11.7,5.1-17.8C244.7,81.4,244.2,77.3,242.5,76.1z"/>
		</g>
		<g>
			<g>
				<path class="st1" d="M293.2,71.5c-2.3,0.7-5,5.5-6.3,7.5c-3.6,5.6-6.3,13.3-6.4,20c0,2.7,0.8,5.4,4.1,4.3
					c2.2-0.7,4.9-5.8,5.9-7.6c3-5.1,4.5-10.9,5-16.8c0,1,0.1,0.9,0.2-3.6C295.2,72.9,297.3,70.2,293.2,71.5z"/>
			</g>
			<g>
				<path class="st1" d="M242.5,76.1c-2.5-1.7-4.9,0.9-6.6,2.9c-4.7,5.5-5.9,12.8-5.9,19.6c0,1.5,0,2,0,3c0.5,2.9,0.1,5.6,4.1,5
					c2.2-0.3,4.5-3.8,5.6-5.5c3.4-5,5.6-11.7,5.1-17.8C244.7,81.4,244.2,77.3,242.5,76.1z"/>
			</g>
			<g>
				
					<ellipse transform="matrix(0.5322 -0.8466 0.8466 0.5322 31.6218 206.1118)" class="st1" cx="202.3" cy="74.4" rx="7.8" ry="4.5"/>
			</g>
			<g>
				<g>
					
						<ellipse transform="matrix(0.5322 -0.8466 0.8466 0.5322 31.6218 206.1118)" class="st1" cx="202.3" cy="74.4" rx="7.8" ry="4.5"/>
				</g>
				<g>
					<path class="st1" d="M293.2,71.5c-2.3,0.7-5,5.5-6.3,7.5c-3.6,5.6-6.3,13.3-6.4,20c0,2.7,0.8,5.4,4.1,4.3
						c2.2-0.7,4.9-5.8,5.9-7.6c3-5.1,4.5-10.9,5-16.8c0,1,0.1,0.9,0.2-3.6C295.2,72.9,297.3,70.2,293.2,71.5z"/>
				</g>
				<g>
					<path class="st1" d="M242.5,76.1c-2.5-1.7-4.9,0.9-6.6,2.9c-4.7,5.5-5.9,12.8-5.9,19.6c0,1.5,0,2,0,3c0.5,2.9,0.1,5.6,4.1,5
						c2.2-0.3,4.5-3.8,5.6-5.5c3.4-5,5.6-11.7,5.1-17.8C244.7,81.4,244.2,77.3,242.5,76.1z"/>
				</g>
				<g>
					<path class="st0" d="M389.1,106c-3.2,2-7.3,6.8-10.8,2.5c-3.6-4.3-2-13.2-1.6-18.3c0.5-7.1,1-14.3-1-21.3
						c-1.5-5.2-4.9-9.5-10.9-8.1c-2.5,0.6-4.3,2.8-6.7,3.3c-3.2,0.7-3.9-1.3-6.3-2.8c-5.7-3.7-10.4,2.1-15.6-0.1
						c-2.6-1.1-3.8-3.7-7-3c-2.6,0.6-4.1,2.9-4.6,5.4c-1.4,7-2.5,14-3.9,20.9c-1.1,5.3-1.4,13.7-4.5,18.2c-2.6,3.7-7.7,3-8.7-1.2
						c-1.4-5.8-0.3-13.1,0.4-19c0.4-3.8,1.8-8.6-0.1-12.2c-1-1.9-2.8-2.4-4.1-3.9c-1.3-1.5-1.5-3.6-2.6-5.3
						c-5.3-8-15.9-0.2-20.1,4.9c-6.9,8.3-10.8,18.4-11.9,29.1c-0.2,2.1-0.6,11.4-5.4,7.4c-2.6-2.1-1.5-10.6-1.5-13.4
						c-0.1-12,2.3-24.7,5.5-36.3c1.4-4.9,3.9-9.6-0.3-14c-2.6-2.7-6.6-3.4-9.3-0.4c-3.4,3.9-3.5,12.1-4.5,17c-0.4,2-0.7,11-2.9,11.7
						c-1.8,0.6-3.3-2.4-4.4-3.3c-1.6-1.4-3.6-2.6-5.7-3.1c-4.9-1.2-9.2,1.4-12.2,5.2c-3.3,4.2-5.8,9.1-7.3,14.2
						c-1.5,4.8-1.2,9.7-2.4,14.5c-1.4,6.1-11.5,16.8-17.8,10.4c-5.7-5.8-1.9-12.9,3.6-16.7c6.3-4.4,11.1-11.7,10.6-19.7
						c-0.6-8.1-9-13.4-15.7-8.1c-3.6,2.9-5.6,6.9-7.5,11c-1.6,3.3-1.9,6.6-3,9.9c-1.2,3.7-1.5,8.8-3.3,12.3
						c-1.1,2.1-4.5,3.8-6.4,1.7c-2-2.1-0.7-9.8-0.7-12.3c0-4.3,1-9.9-0.7-13.9c-1.3-3.1-4.8-5.5-8.2-4.6c-3.3,0.9-3.4,3.6-3.9,6.5
						c-1.6,10.1-5,19.3-10.1,28.1c-2.2-3.2-1.4-7.5-1.4-11.1c0.1-5,0.3-10.1-0.1-15.1c-0.3-4-1.8-8.3-5.5-10.4
						c-4.5-2.5-7.7,0.4-12.1,0.1c-4.3-0.3-1.8-6.2-1-9c1.2-4.3,3.6-10.2,0.4-14.2c-2.3-2.8-7.3-3.7-10-0.9
						c-2.4,2.6-2.5,8.4-3.1,11.6c-2.1,11.9-3.7,23.9-4.7,35.9c-0.4,5.4-3.2,7.3-6.5,11.5c-2,2.6-4.7,7.3-8.1,8.1
						c-10.7,2.7-10.5-15.3-8.2-21c1.5-3.8,4.2-8.3,7.6-10.7c3.3-2.2,7.4-0.3,10.3-3c8-7.7-6-14-12.5-11.9
						c-8.6,2.7-14.6,14.2-17.4,22.2c-3.4,9.6-3.4,19.5,2.9,28c3.5,4.7,9.8,7.2,15.5,7.5c2.6,0.1,5.3-0.2,7.7-1.3
						c2.2-1,4.1-3.7,6.6-3.9c2.8-0.2,4.8,2.7,7.6,2.9c2.6,0.2,4.4-1.3,5.5-3.6c1.6-3.2,1.1-7.3,1.7-10.7c0.6-3.7,1.6-7.3,2.9-10.8
						c0.9-2.3,6.8-15.9,8.2-8.4c0.6,3.2-0.5,7.7-0.7,11c-0.2,3.9-0.4,7.8,0.4,11.6c1.3,6,4.8,12.9,11.9,12.7
						c3.1-0.1,5.4-1.7,7.5-3.8c1.6-1.6,3.5-6.3,5.5-7.2c2.5-1.1,4.5,2.9,6.2,4.2c2.2,1.7,4.6,2.4,7.4,1.8c2.3-0.5,5-3.9,7.3-3.7
						c2,0.2,4.1,3.9,5.5,5.1c4,3.4,8.7,5.5,14,4.7c4.6-0.6,10.4-5.9,14.6-5c3.3,0.7,5.9,4.5,9.4,5.5c2.4,0.7,4.7,0.8,7.1,0
						c2.4-0.8,4.5-2.4,6.3-4.2c1.3-1.2,3.5-4.9,5.2-5.2c2.8-0.5,4.6,3.4,6.4,4.9c1.8,1.6,4.1,3,6.5,3.1c5.7,0.2,6.8-6.5,12-4.1
						c5.4,2.5,9.1,5.3,14.9,1.8c2-1.2,4-4.4,6.3-4.9c2.5-0.5,4.3,2.6,6.1,3.8c2.4,1.7,5.1,2.4,8,1.9c2.4-0.5,4.5-2.5,6.9-2.1
						c4,0.6,7.2,4.4,10.8,0.5c3.5-3.9,3.8-12.1,5.5-17c2.1-6.1,4.8-11.9,8.1-17.5c0.9-1.5,2.2-5.7,4.6-3.8c1.6,1.2,1,6.8,0.9,8.4
						c-0.7,6.9-2.9,13.6-3.8,20.5c-0.7,5.1-1.3,12.9,5.6,13.6c6,0.6,6.4-6.9,7-11.1c0.9-7,1.3-14.3,3.3-21.1c0.7-2.4,4-13.2,7.2-8.3
						c1.1,1.7,0,7.6,0,9.6c-0.1,3.4-0.2,6.8-0.2,10.2c0,6.2-0.3,12.5,3.5,17.8c7.2,10,21.2,9.7,27.1-1.7
						C398.9,107.7,394.9,102.3,389.1,106z M198.5,72c2.3-3.7,5.9-5.5,8-4.2c2.1,1.3,1.9,5.4-0.3,9s-5.9,5.5-8,4.2
						S196.2,75.7,198.5,72z M239.7,101.2c-1.2,1.7-3.4,5.2-5.6,5.5c-4,0.6-3.6-2.1-4.1-5c0-1,0-1.5,0-3c0-6.9,1.2-14.1,5.9-19.6
						c1.7-2,4-4.6,6.6-2.9c1.8,1.2,2.2,5.3,2.4,7.3C245.3,89.5,243.1,96.1,239.7,101.2z M295.8,75.2c-0.1,4.5-0.2,4.6-0.2,3.6
						c-0.5,5.9-2,11.7-5,16.8c-1.1,1.8-3.8,6.9-5.9,7.6c-3.2,1.1-4.1-1.6-4.1-4.3c0-6.7,2.8-14.4,6.4-20c1.3-2,3.9-6.7,6.3-7.5
						C297.3,70.2,295.2,72.9,295.8,75.2z"/>
				</g>
			</g>
		</g>
	</g>
</g>
<g>
	<path class="st0" d="M243.5,4.7c1.2,1.1,1.8,2.7,1.6,4.8h-5.2c0.2-1.2-0.5-1.9-1.6-1.9c-1.1,0-2,0.7-2,1.8c0,1.1,0.8,1.6,2.9,2.3
		c3.6,1.2,4.9,3.2,4.9,6c0,2.2-0.8,4-2.2,5.2c-1.5,1.3-3.4,1.9-5.7,1.9c-2.4,0-4.2-0.7-5.5-2c-1.3-1.4-1.8-3-1.5-4.9h5.2
		c-0.1,1.6,0.5,2.5,2.1,2.5c1.4,0,2.3-0.8,2.3-1.9c0-0.9-0.9-1.7-2.7-2.3c-3.4-1.2-5.2-3.2-5.2-6.1c0-2,0.8-3.7,2.2-5
		c1.5-1.3,3.4-2,5.7-2C240.6,2.9,242.2,3.5,243.5,4.7z"/>
	<path class="st0" d="M254.5,3.3l-3.7,21h-5.2l3.7-21H254.5z"/>
	<path class="st0" d="M263.6,3.3l-2.9,16.2h8.2l-0.8,4.8h-13.4l3.7-21H263.6z"/>
	<path class="st0" d="M287.1,3.3l-0.8,4.8h-7.3l-0.5,3h6.2l-0.8,4.8h-6.2l-0.6,3.5h7.3l-0.8,4.8h-12.5l3.7-21H287.1z"/>
	<path class="st0" d="M308.5,3.3l-3.7,21h-4.6l-5.7-10.8l-0.6-1.4l-2.2,12.2h-5.2l3.7-21h4.6l5.6,10.9l0.6,1.4l2.2-12.3H308.5z"/>
	<path class="st0" d="M328.7,3.3l-0.8,4.8h-6.4l-2.9,16.2h-5.2l2.8-16.2h-6.4l0.8-4.8H328.7z"/>
</g>
<g id="bFFuuM.tif">
	<g>
		<path class="st0" d="M455.6,146.6c2.5-5.7,6.3-10.7,9-16.3c1.6-3.3,3.5-6.5,5.9-9.4c1.5-1.9,3.5-3.2,5.8-3.9
			c2.7-0.7,5,0.4,7.3,1.6c2.4,1.1,5.4-0.1,6.1-2.6c0.2-0.6,0.3-1.1-0.6-0.9c-0.6,0.1-1.3-0.1-1.8-0.5c-0.9-0.6-1.1-1.4-0.6-2.3
			c0.4-0.9,1.1-1.2,2.1-1c0.3,0.1,0.5,0.2,0.8,0.3c0.5,0.1,0.8,1,1.4,0.5c0.5-0.5,0.4-1.2,0.3-1.8c-0.1-0.6-0.3-0.8-1-0.7
			c-1,0.2-1.9-0.1-2.6-0.7c-0.7-0.6-1.1-1.4-0.6-2.2c0.5-0.8,1.2-0.9,2.1-0.7c0.5,0.1,1,0.4,1.4,0.8c0.9,1.4,1.6,0.7,2.2-0.2
			c1.3-2.2,2.3-4.5,2.5-7c0.9-10.8-1.6-20.8-6.7-30.3c-2.7-5.1-7.2-8.2-11.9-11.3c-6.1-3.9-13-5.4-19.9-6.5
			c-8.5-1.3-16.8-0.8-25.2,1.2c-7.8,1.9-13.7,6.3-18.5,12.4c-3.7,4.7-6.7,9.7-9,15.2c-0.3,0.7-0.4,1.4-0.3,2.2
			c0.1,1.2,0.1,2.2,1.8,1.2c0.6-0.4,1.5-0.1,2.1,0.2c0.8,0.4,1.1,1,1,1.9c-0.1,0.9-0.6,1.3-1.5,1.4c-0.6,0.1-1.3,0.2-1.9,0.1
			c-0.4-0.1-1-0.6-1.2,0.2c-0.2,0.9-0.3,1.7,0.4,2.5c0.5,0.6,0.9,0.5,1.4,0.2c0.8-0.5,1.6-0.6,2.6-0.5c0.8,0.1,1.2,0.6,1.2,1.4
			c0,0.8-0.5,1.3-1.3,1.3c-0.4,0-0.9,0-1.3-0.1c-1.8-0.3-3.4,1.5-3,3.3c0.2,0.9,0.8,1.1,1.6,1.2c2,0.3,4.1,0.2,6.2,0.6
			c4.3,0.8,6.1,3.8,7,7.6c0.5,2.4,0.7,4.8,0.6,7.2c-0.3,6.4-0.4,12.8-0.4,19.2c0,5.3-0.7,10.6-2.2,15.8c-1.6,5.4-3,6.4-8.5,5.3
			c-3.4-0.7-6.9-1.4-9.7-3.7c-0.8-0.6-0.7,0.3-0.8,0.6c-0.5,3-1,6-1.5,9c-0.3,1.7-0.2,3.6-1.8,4.8c-0.3,0.2,0,0.5,0.1,0.8
			c1.4,3.6,0.4,7-1.3,10.2c-1.8,3.5-5,5.9-8.1,8.3c-1.4,1.1-2.9,2.1-4.3,3.2c-2,1.5-4.2,3-5.7,5.1c-0.3,0.5-0.7,0.7-1.2,0.3
			c-0.6-0.5,0-0.8,0.2-1.1c2.2-3,5.3-4.9,8.1-7c3.6-2.7,7.5-5.2,9.8-9.3c1.6-3,2.6-6.2,1.3-9.6c-0.3-0.7-0.6-1.2-1.4-1.3
			c-0.9-0.1-1.1-0.8-0.9-1.5c1.4-4.9,1.2-10.2,2.6-15.1c0.2-0.7-0.2-0.8-0.7-1c-6.7-3-9.2-7.6-8.5-13.9c0.6-6.2,0.8-12.5,2.5-18.6
			c0.5-1.9,1.4-3.8,2.1-5.7c0.3-0.7,0.8-1.2,1.4-1.6c0.8-0.5,1.6-1,2.4-1.4c1.3-0.6,2.2-1.2,1.7-2.9c-0.3-1.3-0.1-2.6,0.1-4
			c1.7-11.4,4.9-22.2,11.4-31.9c2.9-4.3,6-8.4,9.6-12.1c4.9-5,11.1-7.4,17.7-9.3c12.7-3.6,25.4-2.8,37.7,1.1
			c11.8,3.8,20.7,11.3,25.2,23.7c5.5,15.5,5.4,30.9,1.4,46.5c-1.2,4.7-2,9.4-3.8,14c-0.2,0.6,0,1,0.3,1.5c1,1.6,1.9,3.3,3.1,4.9
			c2.4,3.2,1.9,6.4,0.1,9.4c-3.5,5.6-6.9,11.3-10.5,16.8c-4.2,6.3-10.7,8.1-17.8,8.3c-1.1,0-2.2-0.2-3-1c-0.5-0.4-1-0.5-1.6-0.5
			c-4.1,0.1-7.7-1.5-11.3-3.1c-2-0.9-2.7-2.4-2.5-4.6c0.4-3.4,1.4-6.7,2.7-9.8C454,149.6,454.8,148.1,455.6,146.6z M484.9,137.4
			c-0.1,0-0.1-0.1-0.2-0.1c0.1-0.2,0.2-0.3,0.3-0.5c1.7-3.3,3.6-6.4,4.3-10.1c0.2-1.3-0.1-2.3-1-3.3c-1.7-1.9-4-2.9-6.2-3.9
			c-4.7-2.2-7.7-1.3-11.2,3.1c-2.3,2.8-3.9,6-5.6,9.2c-3,5.9-7,11.2-9.7,17.2c-1.7,3.9-3.3,7.8-3.9,12c-0.2,1.3,0,2.5,1.3,3.1
			c3.7,1.7,7.4,3.3,11.6,3.2c0.9,0,1.7-0.2,2.3-0.9c1-1.1,2-2.2,2.8-3.5C474.9,154.4,479.9,145.9,484.9,137.4z M401.4,149.2
			c0.5,0.2,1.1,0.5,1.6,0.7c2,0.7,4,1.1,6,1.4c4,0.7,4.8,0.2,6-3.6c0,0,0-0.1,0-0.1c1.9-6,2.5-12.3,2.4-18.5c-0.1-5,0.1-10,0.3-15.1
			c0.1-2.9,0.1-5.8-0.5-8.7c-0.7-3.2-2.3-5.8-6-6.5c-2.2-0.4-4.6-0.8-6.7-0.5c-3.7,0.5-4.3,0.4-5.3,4.2c-0.4,1.6-0.7,3.3-0.8,4.9
			c-0.2,3.4-0.5,6.9-0.6,10.3c-0.2,4.4,0.3,8.8,0.1,13.3c-0.2,3.9-0.2,7.9,0,11.8C398.2,145.3,398.1,148.2,401.4,149.2z M398.9,99.5
			c0.2-0.3,0.5-0.7,0.5-1.3c-0.3-2.4,0.2-4.7,0.7-7c0.2-0.8,0.6-1.8,0.3-2.4c-0.2-0.6-1.3,0-2-0.3c0,0-0.1,0-0.1,0
			c-0.8-0.4-1,0-1.1,0.7c-0.5,2.7-1,5.3-1.5,8c-0.3,1.4-0.3,2.8-0.1,4.3c0.1,0.4,0,1,0.6,0.6C397.1,101.4,398.4,101,398.9,99.5z
			 M493.4,127.8c0.1-0.5,0.3-0.9,0.4-1.4c0.8-3.3,1.7-6.6,2.5-9.8c0.2-0.7,0.7-1.6,0.4-2.1c-0.3-0.8-1.4-0.1-2.1-0.3
			c-0.9-0.3-1.2,0.1-1.4,0.9c-0.6,2.6-1.2,5.3-2.1,7.8c-0.8,2.1-0.5,3.7,1.3,5.1C493,128.4,493.2,128.5,493.4,127.8z M402.5,84.5
			c-0.9,3.9-1.7,7.5-2.2,11.2c-0.3,2.3-0.1,2.4,2.1,1.6c0.5-0.2,0.6-0.3,0.4-0.9c-0.5-1.4-0.1-2.7,0.7-3.9c0.3-0.5,0.6-0.9,0-1.4
			c-1.2-1.2-1.2-2.6-0.9-4.1C403,86.2,403.3,85.4,402.5,84.5z M493.9,107c-1,1-2.2,1.8-1.5,3.5c0.2,0.5,0.2,1.1-0.1,1.6
			c-0.9,1.3-1,2.8-1.4,4.3c-0.6,2-2,3.1-4.2,3.7c1,0.6,1.5,1.1,2.1,1.7c0.4,0.4,0.8,1.3,1.4,1.1c0.4-0.2,0.5-1.1,0.7-1.7
			c1-3.9,1.9-7.8,2.8-11.8C493.8,108.6,494.1,107.9,493.9,107z M406.7,84.8c-0.7-0.2-1.3-0.1-1.8,0.5c-0.2,0.3,0,0.6,0.3,0.7
			c0.7,0.1,1.5,0.3,2-0.3C407.4,85.3,407.1,85,406.7,84.8z M489,112.6c-0.5-0.2-1-0.4-1.3,0.2c-0.2,0.4,0.1,0.7,0.5,0.9
			c0.5,0.1,1,0.3,1.4-0.1C490,113,489.3,112.9,489,112.6z"/>
		<path class="st0" d="M524.4,161.8c0.6,0.3,1.2,0.7,0.9,1.4c-0.3,0.8-1.1,0.5-1.7,0.2c-6-2.2-11.8-4.8-17.7-7.2
			c-0.6-0.2-1-0.6-0.8-1.2c0.2-0.6,0.8-0.7,1.4-0.5c1.2,0.4,2.3,0.9,3.4,1.4C514.7,158.1,519.5,160.1,524.4,161.8z"/>
		<path class="st0" d="M529,138.9c-0.3,0.4-0.7,0.5-1.1,0.5c-5.2,0-10.4,0-15.6-0.5c-0.6-0.1-1.1-0.3-1.1-0.9c0-0.7,0.7-0.8,1.2-0.7
			c5.1,0.4,10.2,0.4,15.3,0.5C528.6,137.6,529.1,138,529,138.9z"/>
		<path class="st0" d="M483.2,181.7c0.2,0.3,0.4,0.6,0.6,1c1,2.1,1.5,4.5,2,6.8c0.4,1.9,0.6,3.8,1.2,5.6c0.2,0.6,0.2,1.1-0.5,1.3
			c-0.7,0.2-1.1-0.2-1.2-0.7c-0.3-1.2-0.6-2.5-0.9-3.7c-0.6-3-1-6-2.3-8.8c-0.2-0.5-0.3-1,0.1-1.3
			C482.4,181.6,482.8,181.6,483.2,181.7z"/>
		<path class="st0" d="M500.9,175.8c2.2,1.2,4.4,2.5,6.4,4c0.6,0.4,1.4,1,0.8,1.8c-0.6,0.8-1.3,0.1-1.9-0.4c-2.5-1.8-5.2-3.4-8-4.8
			c-0.6-0.3-1.3-0.5-1-1.3c0.3-0.9,1.1-0.6,1.8-0.3C499.6,175.1,500.3,175.4,500.9,175.8z"/>
		<path class="st0" d="M472.2,131.3c-2.5,5.5-5.2,10.9-8.2,16.2c-1.9,3.4-3.7,7-6.3,10c-0.8,0.9-1.6,1.7-2.6,2.4
			c-0.5,0.3-1,0.5-1.4-0.1c-0.3-0.6,0.2-0.7,0.6-1c1.8-1.3,3.3-2.9,4.4-4.8c3.6-6.1,7.2-12.2,10.1-18.7c1.9-4.3,4.5-8.2,6.1-12.6
			c0.3-0.7,0.5-1.5,0.8-2.2c0.2-0.4,0.2-1.2,0.8-1c0.7,0.2,0.3,0.8,0.2,1.2c-1,3.3-2.3,6.4-3.9,9.4
			C472.6,130.5,472.4,130.9,472.2,131.3z"/>
		<path class="st0" d="M414.5,101.4c0.4,0.2,0.4,0.6,0.3,0.9c-1.6,6.4-1.3,12.9-2,19.4c-0.7,6.3-0.8,12.7-0.6,19
			c0.1,2,0.5,3.9,1.3,5.7c0.2,0.4,0.7,0.9-0.1,1.2c-0.7,0.3-1-0.2-1.2-0.7c-1-2.5-1.4-5.1-1.4-7.8c0-7.9,0.4-15.8,1.3-23.7
			c0.4-3.6,0.4-7.3,1.1-10.9c0.2-0.9,0.4-1.7,0.6-2.6C413.8,101.7,414,101.3,414.5,101.4z"/>
	</g>
</g>
<path class="st0" d="M4.6,26.4c-0.4-0.3-0.6-0.7-0.3-1.2c0.3-0.6,0.9-0.5,1.3-0.2c0.8,0.4,1.5,0.9,2.2,1.5c4.8,4,10.1,7.3,15.2,11
	c0.6,0.4,1.1,0.8,1.6,1.3c0.4,0.4,0.8,0.9,0.4,1.4c-0.4,0.5-1,0.1-1.4-0.2c-1.8-1.3-3.6-2.6-5.4-3.8c-4.5-3-8.9-6.2-13.2-9.6
	C4.8,26.5,4.7,26.4,4.6,26.4z"/>
<path class="st0" d="M21.2,54.3c-0.3,0.1-0.7,0.2-1.1,0.2c-6.5,0.6-12.8-0.3-18.9-2.9c-0.6-0.3-1.5-0.4-1.2-1.3
	c0.4-1,1.3-0.5,1.9-0.2c4.4,2.1,9.1,2.8,13.9,3c1.5,0.1,2.9-0.1,4.4-0.1c0.4,0,0.9,0,1.1,0.6C21.5,53.8,21.4,54,21.2,54.3z"/>
<path class="st0" d="M23.9,15.3c2.7,3.1,5.5,6.5,7.6,10.3c0.3,0.6,0.7,1.1,1,1.6c0.3,0.4,0.5,0.9,0,1.3c-0.5,0.4-1,0.1-1.3-0.2
	c-0.3-0.3-0.6-0.7-0.8-1.1c-2.1-3.9-4.9-7.3-7.8-10.6c-0.1-0.1-0.2-0.2-0.3-0.3c-0.4-0.5-0.9-1-0.3-1.7C22.4,14.3,23,14.4,23.9,15.3
	z"/>
<path class="st0" d="M10.5,77.7c-0.4-0.5-0.4-1,0.3-1.3c3.6-1.8,7.1-3.8,10.6-5.9c0.5-0.3,1.1-0.5,1.4,0.1c0.3,0.6-0.1,0.9-0.6,1.2
	c-3.2,2.1-6.6,4-10,5.7C11.6,77.7,11.1,78,10.5,77.7z"/>
</svg>
