<svg id="Layer_1" data-name="Layer 1" xmlns="http://www.w3.org/2000/svg" viewBox="0 0 389.43 174.39"><defs><style>.cls-1{fill:#fff;}</style></defs><title>logo</title><path class="cls-1" d="M226.52,492.29a14.18,14.18,0,0,0-3.32,4.43q-2.07,4.06-.22,7.38,1.33,2.29,10,11.37,15.28,16,14.62,27.1-0.52,7.9-16.39,26.95-3.62,4.35-15.28,16.83a15.47,15.47,0,0,1-10.71-3.4q-1.33-1.11-4.13-8.64a82.59,82.59,0,0,1-4.5-20.6q-4.8-45.48-4-43.85a44.89,44.89,0,0,1,15.28,3.54q2.81,7.61,3.62,36.32,0-.37-1.11,18.9-0.52,10,5.68,13.14,3.91-4.95,10.19-26.8,3.25-11.3,3.54-14.4a22.89,22.89,0,0,0-3.84-14,73.53,73.53,0,0,0-5.39-6.87q-4.65-5.54-6.42-7.9-7.68-10.34-7.09-18.6a18.32,18.32,0,0,1,3.25-8.79,19.4,19.4,0,0,1,2-2.51,6.35,6.35,0,0,1,1-1l14.32,6.42q4.58-11.22,3.62-26.5l15.73,5.69q0,1.26-6.79,14.77-7.24,14.25-7.75,15.73-1.4,4.36-3.69,5.61a2.38,2.38,0,0,1-3.47-.74Z" transform="translate(-192.44 -411.96)"/><path class="cls-1" d="M287.94,536.88q1.18,0.3,1.18.74a3.16,3.16,0,0,1-.15.74q-0.15.66-.22,1.11a59.35,59.35,0,0,1-6.5,21.11Q276,572.47,267.93,572.1q-12.55-.59-16.54-14.4-3.1-10.63-.52-24t8.93-21.12q0.15-.22,6.05-6.79a69.1,69.1,0,0,0,6.94-9q1.33-1.92,8.2,3.25,6.27,4.73,8,7.46,2,3.18-2.14,9t-8.93,6.2l3.1-10.93q-3.25,1.26-9.15,9.75-5.39,7.83-7,12.4a51.94,51.94,0,0,0-3,15.43q-0.44,10.41,4.13,14.47,4.5-1,12-11.67,2.36-3.32,5.68-8.64Q287.28,537.84,287.94,536.88Z" transform="translate(-192.44 -411.96)"/><path class="cls-1" d="M295.33,572.61q-3.69,1.18-6.2-.37a6.93,6.93,0,0,1-3-5.32q21.56-78.63,26.8-100.19,0.59-2.51,1.48-5.09a31.18,31.18,0,0,0,1-3q0.52-2.51-1.11-8.12-1.26-4.13,3.84-4.58a17.39,17.39,0,0,1,7,.74q8.71,2.59,7.9,9.38-0.22,1.62-5.24,14.18-15.21,37.73-20.08,55.37,8.78-19.79,19.42-25,6.64-3.32,11.44-3.4,6.13-.22,6.2,5.39,0.15,7.38-10.85,30.12-10.63,22-9.45,39.79,0.37,4.95,5-1.92,1.26-1.77,4.36-6.79,2.88-4.72,4.28-6.72a3,3,0,0,1,3.69-1.18,2.74,2.74,0,0,1,2.21,3,3.43,3.43,0,0,1-.37,1.55q-7.16,15.14-14.77,20.89A10.57,10.57,0,0,1,320,583q-5-1.18-6.57-5-5.17-12.62,8.27-44.67,7.31-17.42,8-19.64,2.66-8.2-.81-8.34-7.16-.44-21.41,29.9-1,2.21-6.35,20.08Q296.21,571.88,295.33,572.61Z" transform="translate(-192.44 -411.96)"/><path class="cls-1" d="M363.62,541.6a1.83,1.83,0,0,0,1.11,1,0.72,0.72,0,0,1,.59,1,83.5,83.5,0,0,1-11.89,22.15q-6.87,8.79-10,5.61-5-5.17-4.72-15.95Q339.11,542,347.15,513q1.18-4.43,2.29-9.67a48.17,48.17,0,0,1,1.25-5,2.49,2.49,0,0,1,2-1.7,22,22,0,0,1,4.5.3q1.18,0.07,4.95-.07a7.44,7.44,0,0,1,3.69.52q2.66,1.85-3.17,13.14-7.24,14.18-14.25,51.83-0.15.74,1,.52a6.42,6.42,0,0,0,3.17-1.92Q358,555.78,363.62,541.6Zm-6.13-54.12a232.32,232.32,0,0,1,4.06-24.07q0.81-3.84-.52-5.32l-0.81-.81a1.5,1.5,0,0,1,.15-1.25l14.25,6.05-8.34,26.06-9.6-.74Z" transform="translate(-192.44 -411.96)"/><path class="cls-1" d="M396.77,547a44.36,44.36,0,0,1-10.11,19q-9.9,10.48-20.89,2.81-10.34-7.16-8.64-25.69a79,79,0,0,1,8.27-27.91,88.53,88.53,0,0,1,6.79-11.44q6.13-8.79,8.64-6.79a18.11,18.11,0,0,1,2.73,4.13,20.37,20.37,0,0,0,4.5,5.76,7.41,7.41,0,0,1,2.81,6.05,22.25,22.25,0,0,1-1.77,6.87q-2,4.8-14.54,21.19a27.86,27.86,0,0,1-2.29,2.51L370,546A8.72,8.72,0,0,0,368,552q0.81,11.52,4.58,13.14,4,1.18,12.4-5.24t8.19-10.78Zm-27.39-3.91q1.18-.67,9.45-14,6.72-10.78,6.87-16.83-5.17,2.29-10.63,13.66Q370.41,535.85,369.38,543.08Z" transform="translate(-192.44 -411.96)"/><path class="cls-1" d="M404.59,563.61q5.17-4.21,15.87-28.57,8.86-19.93,15-37.8a176.51,176.51,0,0,0,4.72-17.94q0.59-2.51,1.92-8.64,1-4.43,1.33-5.91,4-15.8,4.36-16.39a5.45,5.45,0,0,1,4.43-2.73q3.1-.15,8.64,2.44,4.21,2,4.8,2.73t-0.74,2.44A56.92,56.92,0,0,0,454.72,470q-4.5,12-13.14,47.62-8.71,36.1-8.56,43.12a4.12,4.12,0,0,0,2.14,3.17q3.1,1.48,8.27-7L451.55,545a1.6,1.6,0,0,1,2.21-.52,1.24,1.24,0,0,1,.52,2q-9.82,16.61-11,18.09-6.42,8-14.91,7.53-9.52-.59-4.95-22.52A138,138,0,0,1,427.26,535q1.77-5.61,1.62-5.32s-3.32,6.64-10,20.08Q411.38,565.08,408,568q-4.14,3.54-7.75,3.54a7.23,7.23,0,0,1-6.05-3.4q-5.47-7.46-2.88-25,1.48-10.11,10.34-26.28,7.38-13.51,12.62-19.27,14.62,5.09,10.78,14.84a17.82,17.82,0,0,0-10.63,6.35q-3.32,3.84-7.75,12.63a54.94,54.94,0,0,0-6.05,20.3Q399.79,561.69,404.59,563.61Z" transform="translate(-192.44 -411.96)"/><path class="cls-1" d="M472.88,544.26a69.46,69.46,0,0,0-5.39,10.63,110.18,110.18,0,0,1-5.09,10.78q-4.36,7.61-9.6,6.2t-6-10a91.19,91.19,0,0,1,1.7-26.28q3-14.54,9.16-24.58,10.11-16.54,15.21-13.22,6.72,4.43,6.28,8.93-0.3,3.4-5.76,9.75a75.21,75.21,0,0,0-13,21q-5.61,13.36-4.28,24.51,4.13-2.21,14-21.93,4.87-9.89,5.54-12.7L480,512.74l10.56,1.7-0.15.89q0.29,3.4-4.06,20.08-3.91,15.14-1.48,23.11,8.64-15.06,9.08-15.28l3,1.77q1.33,3.18-4.13,14.25t-8.71,12q-10,3.1-11.15-10.48a68.65,68.65,0,0,1,0-10.19q0.29-5.39-.07-6Z" transform="translate(-192.44 -411.96)"/><path class="cls-1" d="M515.93,535.33q-8,13.81-10,23.7-2.44,12.11-3.84,12.55a20.21,20.21,0,0,1-4.65.66q-4,.22-4.58-0.74a14,14,0,0,1-2.14-9.67q0.22-1.7,1-5.39,1-4.21,1.4-6.57,8.2-49.69,13.66-52.12,9.23-4.21,11.22-3a22.84,22.84,0,0,1-.74,4.28,35.66,35.66,0,0,1-1.55,6.05q-4.14,9.6-7.46,26.21,1.11-.74,12.48-13.73,12.33-14,14-17.65,1.4-3.1,6.42-3.4t6.94,2l-9.52,28.94q0.37,0.07,8.64-8.42,9-9.23,10.19-10.19,11.59-9.45,8.71-9.6,8.34,0.52,12,5.69-0.15,1.26-3.25,6.2-3.62,5.76-4.28,7.16a106.24,106.24,0,0,0-7,23.77q-2.66,14.47-1.77,24.22l20.08-30.42q0.15,0.37-2.07,9.15a144.86,144.86,0,0,1-6,18.68q-10.26,25.4-21.48,13.36-6.42-6.87-1.7-34.4,4.36-25,7.68-28.2-17.65,17.13-22.89,35.51-0.89,3-2.81,12.77-1.26,6.57-3.17,9.67l-8.42-.44q-0.15-10.41,4.73-33.59,1.11-4.95,3.62-15.8,1.7-7.53,1.85-9Z" transform="translate(-192.44 -411.96)"/><path class="cls-1" d="M360,428.88a7,7,0,0,1-2,5.21,7.88,7.88,0,0,1-5.79,2.13,17.76,17.76,0,0,1-3.2-.31,21.26,21.26,0,0,1-2.63-.62l-0.93-.33v-5.85H347a0.62,0.62,0,0,1,.67.55q0,0.21.15,1.61t0.11,1.42a11.92,11.92,0,0,0,3.94.9,7.51,7.51,0,0,0,2.41-.31,4.27,4.27,0,0,0,1.5-.88,4,4,0,0,0,1.25-3.08,3.16,3.16,0,0,0-1.74-2.87,9.23,9.23,0,0,0-1.78-.78q-3.1-1-4.11-1.41a6.79,6.79,0,0,1-1.79-1.15,5.54,5.54,0,0,1-1.74-4.35,6,6,0,0,1,1.87-4.45,7.11,7.11,0,0,1,5.21-2,17.55,17.55,0,0,1,6.54,1.34v5.36h-1.58a0.61,0.61,0,0,1-.67-0.55q0-.1-0.26-2.9a14.34,14.34,0,0,0-3.85-.62,4.64,4.64,0,0,0-3.23,1.06,3.27,3.27,0,0,0-1.11,2.58,3.05,3.05,0,0,0,1.76,2.72,9.68,9.68,0,0,0,1.81.8q2.93,1,4.09,1.48A5.43,5.43,0,0,1,360,428.88Z" transform="translate(-192.44 -411.96)"/><path class="cls-1" d="M369.39,434.56V436h-7.6v-1.41a0.62,0.62,0,0,1,.5-0.6l1.85-.37V421.84l-1.85-.37a0.62,0.62,0,0,1-.5-0.6v-1.41H367v14.13l1.85,0.37A0.62,0.62,0,0,1,369.39,434.56Zm-5.68-19.49a1.92,1.92,0,0,1-.16-0.79,2,2,0,0,1,.16-0.81,2.13,2.13,0,0,1,.45-0.67,2.16,2.16,0,0,1,.65-0.45,1.92,1.92,0,0,1,.79-0.16,2,2,0,0,1,.8.16,2.12,2.12,0,0,1,.66.45,2.23,2.23,0,0,1,.46.67,2,2,0,0,1,.17.81,1.84,1.84,0,0,1-.17.79,2.28,2.28,0,0,1-.46.65,2.11,2.11,0,0,1-.66.45,2,2,0,0,1-.8.16,1.93,1.93,0,0,1-.79-0.16A2.17,2.17,0,0,1,363.71,415.07Z" transform="translate(-192.44 -411.96)"/><path class="cls-1" d="M378.86,434.56V436h-7.61v-1.4a0.55,0.55,0,0,1,.49-0.6l1.86-.37V414.34l-1.86-.37a0.55,0.55,0,0,1-.49-0.6V412h5.25v21.63l1.86,0.38A0.56,0.56,0,0,1,378.86,434.56Z" transform="translate(-192.44 -411.96)"/><path class="cls-1" d="M390.79,419.69a6.14,6.14,0,0,1,2.17,1.43,6.55,6.55,0,0,1,1.43,2.31,9,9,0,0,1,.51,3.14,1.9,1.9,0,0,1-.15.91,0.61,0.61,0,0,1-.55.23h-11a9.14,9.14,0,0,0,.42,2.72,5.56,5.56,0,0,0,1.08,1.93,4.31,4.31,0,0,0,1.63,1.16,5.6,5.6,0,0,0,2.12.38,6.21,6.21,0,0,0,1.88-.25,9,9,0,0,0,1.36-.55,10.43,10.43,0,0,0,1-.55,1.26,1.26,0,0,1,.66-0.25,0.64,0.64,0,0,1,.55.28l0.81,1.06a5.5,5.5,0,0,1-1.29,1.13,8,8,0,0,1-1.61.79A10.16,10.16,0,0,1,390,436a10.77,10.77,0,0,1-1.81.15,8.39,8.39,0,0,1-3.15-.58,6.92,6.92,0,0,1-2.49-1.69,7.79,7.79,0,0,1-1.64-2.76,11.24,11.24,0,0,1-.59-3.78,9.61,9.61,0,0,1,.53-3.23,7.59,7.59,0,0,1,1.52-2.6,7,7,0,0,1,2.43-1.73,8,8,0,0,1,3.23-.63A7.37,7.37,0,0,1,390.79,419.69Zm-6,2.85a5.72,5.72,0,0,0-1.5,3.37h9a5.88,5.88,0,0,0-.28-1.85,4.14,4.14,0,0,0-.82-1.45,3.65,3.65,0,0,0-1.31-.95A5,5,0,0,0,384.81,422.55Z" transform="translate(-192.44 -411.96)"/><path class="cls-1" d="M407.35,419.2a5.08,5.08,0,0,1,4.12,1.73,6.8,6.8,0,0,1,1.4,4.53v8.13l1.86,0.38a0.56,0.56,0,0,1,.51.6V436H410V425.46q0-3.94-3.47-3.94a6,6,0,0,0-4.46,2.3v9.78L403.9,434a0.56,0.56,0,0,1,.5.6V436h-7.61v-1.4a0.55,0.55,0,0,1,.49-0.6l1.86-.37V421.84l-1.86-.37a0.55,0.55,0,0,1-.49-0.6v-1.4h4.07a0.74,0.74,0,0,1,.78.6l0.23,1.79A7.24,7.24,0,0,1,407.35,419.2Z" transform="translate(-192.44 -411.96)"/><path class="cls-1" d="M420.15,435.14A4.36,4.36,0,0,1,419.1,432v-10.1h-2a0.65,0.65,0,0,1-.44-0.15,0.6,0.6,0,0,1-.18-0.48v-1.16l2.71-.34,0.67-5.1a0.61,0.61,0,0,1,.21-0.4,0.67,0.67,0,0,1,.46-0.15H422v5.69h4.73v2.1H422v9.91a2.11,2.11,0,0,0,.5,1.55,1.77,1.77,0,0,0,1.3.5,2.3,2.3,0,0,0,.79-0.12,3.38,3.38,0,0,0,.58-0.27l0.42-.27a0.55,0.55,0,0,1,.3-0.12,0.5,0.5,0,0,1,.41.28l0.85,1.39a5.41,5.41,0,0,1-1.81,1.1,6.15,6.15,0,0,1-2.18.4A4,4,0,0,1,420.15,435.14Z" transform="translate(-192.44 -411.96)"/><rect class="cls-1" x="248.65" y="12.46" width="134.46" height="4.07"/><rect class="cls-1" x="4.18" y="12.46" width="134.46" height="4.07"/></svg>