<svg id="Layer_1" data-name="Layer 1" xmlns="http://www.w3.org/2000/svg" viewBox="0 0 704 72.42"><defs><style>.cls-1{fill:#e0534b;}</style></defs><title>pand-overlay</title><path class="cls-1" d="M25,1554.5a2,2,0,0,1-2-2v-25a2,2,0,0,1,4,0v25A2,2,0,0,1,25,1554.5Z" transform="translate(-23 -1482.08)"/><path class="cls-1" d="M45,1554.5a2,2,0,0,1-2-2v-48.19a2,2,0,0,1,4,0v48.19A2,2,0,0,1,45,1554.5Z" transform="translate(-23 -1482.08)"/><path class="cls-1" d="M65,1554.5a2,2,0,0,1-2-2V1516a2,2,0,0,1,4,0v36.54A2,2,0,0,1,65,1554.5Z" transform="translate(-23 -1482.08)"/><path class="cls-1" d="M85,1554.5a2,2,0,0,1-2-2v-25a2,2,0,0,1,4,0v25A2,2,0,0,1,85,1554.5Z" transform="translate(-23 -1482.08)"/><path class="cls-1" d="M105,1554.5a2,2,0,0,1-2-2v-44.16a2,2,0,0,1,4,0v44.16A2,2,0,0,1,105,1554.5Z" transform="translate(-23 -1482.08)"/><path class="cls-1" d="M125,1554.5a2,2,0,0,1-2-2v-25a2,2,0,0,1,4,0v25A2,2,0,0,1,125,1554.5Z" transform="translate(-23 -1482.08)"/><path class="cls-1" d="M145,1554.5a2,2,0,0,1-2-2V1506a2,2,0,0,1,4,0v46.54A2,2,0,0,1,145,1554.5Z" transform="translate(-23 -1482.08)"/><path class="cls-1" d="M165,1554.5a2,2,0,0,1-2-2V1516a2,2,0,0,1,4,0v36.54A2,2,0,0,1,165,1554.5Z" transform="translate(-23 -1482.08)"/><path class="cls-1" d="M185,1554.5a2,2,0,0,1-2-2v-25a2,2,0,0,1,4,0v25A2,2,0,0,1,185,1554.5Z" transform="translate(-23 -1482.08)"/><path class="cls-1" d="M205,1554.5a2,2,0,0,1-2-2v-25a2,2,0,0,1,4,0v25A2,2,0,0,1,205,1554.5Z" transform="translate(-23 -1482.08)"/><path class="cls-1" d="M225,1554.5a2,2,0,0,1-2-2v-25a2,2,0,0,1,4,0v25A2,2,0,0,1,225,1554.5Z" transform="translate(-23 -1482.08)"/><path class="cls-1" d="M245,1554.5a2,2,0,0,1-2-2v-44.16a2,2,0,0,1,4,0v44.16A2,2,0,0,1,245,1554.5Z" transform="translate(-23 -1482.08)"/><path class="cls-1" d="M265,1554.5a2,2,0,0,1-2-2V1516a2,2,0,0,1,4,0v36.54A2,2,0,0,1,265,1554.5Z" transform="translate(-23 -1482.08)"/><path class="cls-1" d="M285,1554.5a2,2,0,0,1-2-2v-25a2,2,0,0,1,4,0v25A2,2,0,0,1,285,1554.5Z" transform="translate(-23 -1482.08)"/><path class="cls-1" d="M305,1554.5a2,2,0,0,1-2-2V1540a2,2,0,0,1,4,0v12.5A2,2,0,0,1,305,1554.5Z" transform="translate(-23 -1482.08)"/><path class="cls-1" d="M325,1554.5a2,2,0,0,1-2-2v-68.42a2,2,0,0,1,4,0v68.42A2,2,0,0,1,325,1554.5Z" transform="translate(-23 -1482.08)"/><path class="cls-1" d="M345,1554.5a2,2,0,0,1-2-2v-39.69a2,2,0,0,1,4,0v39.69A2,2,0,0,1,345,1554.5Z" transform="translate(-23 -1482.08)"/><path class="cls-1" d="M365,1554.5a2,2,0,0,1-2-2v-48.19a2,2,0,0,1,4,0v48.19A2,2,0,0,1,365,1554.5Z" transform="translate(-23 -1482.08)"/><path class="cls-1" d="M385,1554.5a2,2,0,0,1-2-2V1521a2,2,0,0,1,4,0v31.51A2,2,0,0,1,385,1554.5Z" transform="translate(-23 -1482.08)"/><path class="cls-1" d="M405,1554.5a2,2,0,0,1-2-2v-25a2,2,0,0,1,4,0v25A2,2,0,0,1,405,1554.5Z" transform="translate(-23 -1482.08)"/><path class="cls-1" d="M425,1554.5a2,2,0,0,1-2-2v-53.67a2,2,0,0,1,4,0v53.67A2,2,0,0,1,425,1554.5Z" transform="translate(-23 -1482.08)"/><path class="cls-1" d="M445,1554.5a2,2,0,0,1-2-2v-50.31a2,2,0,0,1,4,0v50.31A2,2,0,0,1,445,1554.5Z" transform="translate(-23 -1482.08)"/><path class="cls-1" d="M465,1554.5a2,2,0,0,1-2-2v-39.69a2,2,0,0,1,4,0v39.69A2,2,0,0,1,465,1554.5Z" transform="translate(-23 -1482.08)"/><path class="cls-1" d="M485,1554.5a2,2,0,0,1-2-2v-25a2,2,0,0,1,4,0v25A2,2,0,0,1,485,1554.5Z" transform="translate(-23 -1482.08)"/><path class="cls-1" d="M525,1554.5a2,2,0,0,1-2-2v-56.77a2,2,0,0,1,4,0v56.77A2,2,0,0,1,525,1554.5Z" transform="translate(-23 -1482.08)"/><path class="cls-1" d="M505,1554.5a2,2,0,0,1-2-2v-48.19a2,2,0,0,1,4,0v48.19A2,2,0,0,1,505,1554.5Z" transform="translate(-23 -1482.08)"/><path class="cls-1" d="M545,1554.5a2,2,0,0,1-2-2V1516a2,2,0,0,1,4,0v36.54A2,2,0,0,1,545,1554.5Z" transform="translate(-23 -1482.08)"/><path class="cls-1" d="M565,1554.5a2,2,0,0,1-2-2v-25a2,2,0,0,1,4,0v25A2,2,0,0,1,565,1554.5Z" transform="translate(-23 -1482.08)"/><path class="cls-1" d="M585,1554.5a2,2,0,0,1-2-2v-25a2,2,0,0,1,4,0v25A2,2,0,0,1,585,1554.5Z" transform="translate(-23 -1482.08)"/><path class="cls-1" d="M605,1554.5a2,2,0,0,1-2-2v-44.16a2,2,0,0,1,4,0v44.16A2,2,0,0,1,605,1554.5Z" transform="translate(-23 -1482.08)"/><path class="cls-1" d="M625,1554.5a2,2,0,0,1-2-2v-25a2,2,0,0,1,4,0v25A2,2,0,0,1,625,1554.5Z" transform="translate(-23 -1482.08)"/><path class="cls-1" d="M645,1554.5a2,2,0,0,1-2-2v-50.31a2,2,0,0,1,4,0v50.31A2,2,0,0,1,645,1554.5Z" transform="translate(-23 -1482.08)"/><path class="cls-1" d="M665,1554.5a2,2,0,0,1-2-2v-53.67a2,2,0,0,1,4,0v53.67A2,2,0,0,1,665,1554.5Z" transform="translate(-23 -1482.08)"/><path class="cls-1" d="M685,1554.5a2,2,0,0,1-2-2v-60.83a2,2,0,0,1,4,0v60.83A2,2,0,0,1,685,1554.5Z" transform="translate(-23 -1482.08)"/><path class="cls-1" d="M705,1554.5a2,2,0,0,1-2-2v-44.16a2,2,0,0,1,4,0v44.16A2,2,0,0,1,705,1554.5Z" transform="translate(-23 -1482.08)"/><path class="cls-1" d="M725,1554.5a2,2,0,0,1-2-2v-25a2,2,0,0,1,4,0v25A2,2,0,0,1,725,1554.5Z" transform="translate(-23 -1482.08)"/></svg>